<?xml version="1.0" encoding="utf-8"?>
<svg version="1.1" xmlns="http://www.w3.org/2000/svg" xmlns:bx="https://boxy-svg.com" viewBox="0 0 1024 1024"><defs><bx:export><bx:file format="svg"/></bx:export></defs><path d="M 499.256 239.976 C 499.256 258.786 499.256 277.596 499.256 296.976 C 491.666 297.966 484.076 298.956 476.256 299.976 C 447.556 306.653 420.516 318.275 398.256 337.976 C 397.756 338.411 397.266 338.845 396.756 339.293 C 377.826 355.978 362.516 376.418 352.946 399.851 C 352.646 400.58 352.336 401.308 352.036 402.059 C 348.606 410.869 346.696 419.708 344.256 428.976 C 379.896 428.976 415.536 428.976 452.256 428.976 C 451.926 426.666 451.596 424.356 451.256 421.976 C 450.626 415.06 450.466 409.47 454.706 403.722 C 460.446 397.262 466.326 393.13 475.196 392.601 C 479.776 392.257 482.326 391.001 486.026 388.386 C 490.436 385.595 495.416 383.873 500.256 381.976 C 500.846 372.285 500.846 372.285 496.256 363.976 C 494.536 359.839 493.946 356.454 494.256 351.976 C 494.586 351.646 494.916 351.316 495.256 350.976 C 495.336 348.949 495.406 346.921 495.446 344.893 C 495.806 330.261 495.806 330.261 501.256 324.976 C 508.866 318.717 515.306 317.976 525.256 317.976 C 525.256 292.236 525.256 266.496 525.256 239.976 C 569.206 242.561 612.185 256.747 647.256 283.976 C 648.77 285.146 648.77 285.146 650.315 286.339 C 664.298 297.506 677.164 309.933 688.256 323.976 C 689.037 324.929 689.818 325.881 690.623 326.863 C 706.776 347.011 722.146 373.407 727.256 398.976 C 708.116 398.976 688.976 398.976 669.256 398.976 C 665.626 392.046 661.996 385.116 658.256 377.976 C 638.77 346.651 614.108 327.402 581.256 310.976 C 581.256 339.686 581.256 368.396 581.256 397.976 C 582.576 398.636 583.896 399.296 585.256 399.976 C 589.582 403.774 592.938 407.436 593.471 413.371 C 593.521 417.097 593.395 420.409 592.506 424.039 C 592.226 427.324 592.722 428.188 594.194 431.039 C 598.667 440.684 596.631 448.622 593.175 458.21 C 586.611 475.621 586.611 475.621 582.256 479.976 C 581.957 482.334 581.957 482.334 582.015 485.114 C 582.013 486.202 582.01 487.29 582.007 488.411 C 582.014 489.61 582.022 490.809 582.029 492.045 C 582.029 493.933 582.029 493.933 582.028 495.858 C 582.027 499.315 582.039 502.771 582.053 506.228 C 582.066 509.838 582.067 513.448 582.069 517.058 C 582.075 523.897 582.092 530.736 582.112 537.574 C 582.134 545.359 582.145 553.144 582.155 560.928 C 582.176 576.944 582.211 592.96 582.256 608.976 C 584.83 607.695 587.403 606.413 589.975 605.13 C 590.701 604.769 591.426 604.409 592.174 604.037 C 603.365 598.452 613.797 592.208 623.256 583.976 C 624.466 582.93 624.466 582.93 625.701 581.863 C 628.258 579.606 630.762 577.302 633.256 574.976 C 634.12 574.19 634.983 573.403 635.873 572.593 C 651.393 557.883 663.37 538.684 670.635 518.593 C 671.256 516.976 671.256 516.976 672.256 515.976 C 674.036 515.882 675.82 515.859 677.602 515.862 C 679.314 515.863 679.314 515.863 681.06 515.863 C 682.301 515.868 683.543 515.873 684.822 515.878 C 686.718 515.88 686.718 515.88 688.652 515.883 C 692.017 515.887 695.382 515.896 698.748 515.907 C 702.179 515.918 705.606 515.922 709.046 515.927 C 715.786 515.938 722.516 515.955 729.256 515.976 C 727.826 522.712 726.006 529.07 723.636 535.539 C 723.106 536.981 723.106 536.981 722.566 538.453 C 719.376 546.967 715.596 555 711.256 562.976 C 710.646 564.13 710.026 565.283 709.396 566.472 C 701.905 580.109 692.952 592.674 682.256 603.976 C 681.146 605.263 680.042 606.554 678.944 607.851 C 670.841 617.114 662.01 625.474 652.256 632.976 C 651.701 633.408 651.145 633.839 650.573 634.284 C 641.277 641.475 631.66 647.524 621.256 652.976 C 620.6 653.323 619.944 653.669 619.268 654.026 C 611.641 658.03 603.895 661.663 595.944 664.976 C 595.22 665.279 594.496 665.582 593.75 665.894 C 590.769 667.107 588.506 667.976 585.256 667.976 C 585.247 667.367 585.237 666.758 585.228 666.131 C 585.145 650.068 585.145 650.068 580.256 634.976 C 579.802 634.029 579.349 633.081 578.881 632.105 C 577.71 629.706 576.504 627.335 575.256 624.976 C 574.596 626.626 573.936 628.276 573.256 629.976 C 572.126 626.584 572.536 624.431 573.256 620.976 C 573.376 617.823 573.386 614.812 572.886 611.691 C 571.926 605.493 572.776 601.379 575.246 595.617 C 579.733 583.867 578.062 568.623 574.256 556.976 C 573.836 555.597 573.416 554.218 573.006 552.839 C 570.346 544.276 567.116 536.24 563.166 528.194 C 555.256 511.88 555.256 511.88 555.256 504.976 C 553.986 505.767 552.716 506.559 551.446 507.351 C 550.736 507.792 550.026 508.233 549.296 508.687 C 547.606 509.758 545.926 510.863 544.256 511.976 C 545.616 508.821 547.076 507.044 549.756 504.914 C 552.196 502.967 553.476 501.642 555.256 498.976 C 555.536 496.12 555.716 493.337 555.816 490.476 C 556.136 482.33 556.136 482.33 557.256 478.976 C 556.526 478.973 555.796 478.971 555.046 478.968 C 543.526 478.541 532.896 474.969 522.416 470.285 C 518.316 468.588 516.536 468.763 512.256 469.976 C 509.476 471.431 506.756 472.984 504.036 474.542 C 498.216 477.545 492.726 478.068 486.256 477.976 C 486.786 481.544 487.356 485.104 487.946 488.664 C 488.096 489.671 488.246 490.678 488.396 491.716 C 489.396 497.664 490.276 501.119 495.256 504.976 C 496.586 506.309 497.926 507.643 499.256 508.976 C 498.926 509.636 498.596 510.296 498.256 510.976 C 496.786 509.706 495.326 508.437 493.866 507.167 C 492.146 505.767 492.146 505.767 489.256 504.976 C 489.096 505.619 488.936 506.262 488.776 506.925 C 486.386 516.166 491.01 449.36 486.94 457.987 C 477.34 478.394 331.536 447.081 339.366 469.331 C 340.336 471.843 327.019 512.186 328.279 514.123 C 329.959 518.361 341.594 552.159 341.134 556.595 C 341.044 560.212 402.646 612.927 404.146 616.142 C 404.266 619.455 421.108 624.547 420.988 627.234 C 420.174 627.135 444.209 645.967 445.23 643.076 C 444.6 640.514 467.317 647.564 466.947 645.126 C 460.067 658.232 460.226 647.914 463.256 662.976 C 463.346 664.724 463.386 666.476 463.376 668.226 C 463.386 669.097 463.386 669.969 463.386 670.867 C 463.256 672.976 463.256 672.976 462.256 673.976 C 455.286 674.741 449.226 672.333 442.696 670.101 C 441.496 669.697 440.306 669.293 439.086 668.876 C 397.816 654.563 359.986 628.812 333.256 593.976 C 332.776 593.354 332.296 592.732 331.796 592.091 C 301.996 553.347 288.046 507.077 288.006 458.539 C 288.006 457.696 288.006 456.853 288.006 455.985 C 288.016 443.1 288.506 430.609 291.256 417.976 C 291.516 416.738 291.516 416.738 291.796 415.476 C 303.426 362.668 333.326 314.999 377.256 282.976 C 378.256 282.234 379.246 281.491 380.276 280.726 C 414.456 256.129 456.946 239.976 499.256 239.976 Z" fill="#E9822C"/><path d="M0 0 C0 18.81 0 37.62 0 57 C-7.59 57.99 -15.18 58.98 -23 60 C-51.69451271 66.67733944 -78.74156688 78.29850029 -101 98 C-101.49483887 98.4345752 -101.98967773 98.86915039 -102.49951172 99.31689453 C-121.42457981 116.00153802 -136.73659321 136.44243635 -146.3125 159.875 C-146.61373779 160.60356201 -146.91497559 161.33212402 -147.2253418 162.08276367 C-150.64970635 170.8927112 -152.56112134 179.73226108 -155 189 C-119.36 189 -83.72 189 -47 189 C-47.33 186.69 -47.66 184.38 -48 182 C-48.6247014 175.08366312 -48.79264914 169.49352602 -44.55078125 163.74609375 C-38.81307078 157.28574971 -32.92860897 153.15371292 -24.0625 152.625 C-19.40904011 152.28809793 -16.84786609 150.9196353 -13.08203125 148.28125 C-9.40474815 146.01830655 -5.24382491 144.73871197 -1 144 C-0.01 144.33 0.98 144.66 2 145 C4.63804589 144.60602665 4.63804589 144.60602665 7 144 C6.67 144.99 6.34 145.98 6 147 C3.29816799 148.24745417 0.65758758 149.34199926 -2.125 150.375 C-6.70501952 152.08066244 -10.80449737 153.69753076 -14.70703125 156.6875 C-17.68802587 158.94595912 -19.74999475 159.59170301 -23.5625 159.625 C-29.85193613 159.96868503 -33.79498577 161.57001543 -38.375 165.9375 C-41.7120804 170.06494154 -41.72446512 174.02474029 -41.47265625 179.18359375 C-40.81472179 183.10401313 -39.58660039 185.02149046 -37 188 C-36.67 188.66 -36.34 189.32 -36 190 C-37.65 189.34 -39.3 188.68 -41 188 C-41.309375 188.94875 -41.61875 189.8975 -41.9375 190.875 C-43 194 -43 194 -44 196 C-46.17210667 207.28599755 -39.88554353 217.53523529 -34.84179688 227.22509766 C-34.29362305 228.28349854 -34.29362305 228.28349854 -33.734375 229.36328125 C-33.40147461 229.99145752 -33.06857422 230.61963379 -32.72558594 231.2668457 C-32 233 -32 233 -32 236 C-32.33 236.66 -32.66 237.32 -33 238 C-33.66 238 -34.32 238 -35 238 C-35 240.31 -35 242.62 -35 245 C-74.6 245 -114.2 245 -155 245 C-147.26412738 279.03783953 -136.09218856 306.03616931 -112 331 C-110.83404297 332.26070312 -110.83404297 332.26070312 -109.64453125 333.546875 C-89.0890325 355.1697447 -61.29217317 367.91652195 -33 376 C-33 371.05 -33 366.1 -33 361 C-28 363 -28 363 -27 365 C-26.9688542 368.51057625 -27.06770754 372.0101784 -27.16015625 375.51953125 C-27.00437123 378.90500569 -26.35713602 380.94776413 -25 384 C-24.875 387.3125 -24.875 387.3125 -25 390 C-25.66 389.67 -26.32 389.34 -27 389 C-27.625 386.4375 -27.625 386.4375 -28 384 C-34.88439576 397.10612242 -39.03143975 407.93827966 -36 423 C-35.91206845 424.74828606 -35.86975902 426.49951188 -35.875 428.25 C-35.87242187 429.12140625 -35.86984375 429.9928125 -35.8671875 430.890625 C-36 433 -36 433 -37 434 C-43.97208526 434.76487011 -50.029821 432.35734394 -56.5625 430.125 C-57.75472168 429.72079834 -58.94694336 429.31659668 -60.17529297 428.90014648 C-101.43498313 414.58707476 -139.27256765 388.83575452 -166 354 C-166.48194824 353.37802734 -166.96389648 352.75605469 -167.46044922 352.11523438 C-197.26156236 313.37100127 -211.21492437 267.10122375 -211.25 218.5625 C-211.25067474 217.71995667 -211.25134949 216.87741333 -211.25204468 216.00933838 C-211.235682 203.124419 -210.75289915 190.632985 -208 178 C-207.73461426 176.7622583 -207.73461426 176.7622583 -207.46386719 175.49951172 C-195.82718471 122.69228684 -165.92726149 75.02320909 -122 43 C-121.00226563 42.2575 -120.00453125 41.515 -118.9765625 40.75 C-84.80434072 16.15302803 -42.30777519 0 0 0 Z " fill="#E9842C" transform="translate(500,240)"/><path d="M0 0 C1.25282443 0.52277065 2.50158816 1.05537952 3.74609375 1.59765625 C10.77246281 4.59644928 17.54361843 6.69150002 25.12109375 7.78515625 C26.26449219 7.95273437 27.40789062 8.1203125 28.5859375 8.29296875 C29.44316406 8.41414063 30.30039062 8.5353125 31.18359375 8.66015625 C31.13151129 11.89061598 31.03639221 15.11844384 30.93359375 18.34765625 C30.91941406 19.25966797 30.90523437 20.17167969 30.890625 21.11132812 C30.64434182 27.8841156 29.24792382 30.78890389 24.26171875 35.4609375 C23.6584375 35.95980469 23.05515625 36.45867187 22.43359375 36.97265625 C21.82 37.48441406 21.20640625 37.99617188 20.57421875 38.5234375 C20.1153125 38.89855469 19.65640625 39.27367187 19.18359375 39.66015625 C22.32221464 37.00440011 25.28625686 35.88808431 29.18359375 34.66015625 C29.58449219 35.7996875 29.98539063 36.93921875 30.3984375 38.11328125 C33.53317695 46.88605479 36.89559238 55.45328854 40.80859375 63.91015625 C44.54462073 72.02424174 47.71083919 80.06785364 50.18359375 88.66015625 C50.42851563 89.48902344 50.6734375 90.31789063 50.92578125 91.171875 C53.97712453 103.48174618 53.09801252 117.70142736 49.18359375 129.66015625 C48.81234375 130.25828125 48.44109375 130.85640625 48.05859375 131.47265625 C46.63780009 135.02464041 47.24340509 138.5281074 47.55859375 142.28515625 C47.670702 143.81900099 47.782687 145.35285474 47.89453125 146.88671875 C47.98992187 148.13195312 48.0853125 149.3771875 48.18359375 150.66015625 C48.18359375 151.32015625 48.18359375 151.98015625 48.18359375 152.66015625 C48.60382813 153.20671875 49.0240625 153.75328125 49.45703125 154.31640625 C51.71555656 157.38227771 53.22981782 160.71494606 54.80859375 164.16015625 C55.12054687 164.82402344 55.4325 165.48789062 55.75390625 166.171875 C57.97173859 170.96124569 59.30848428 174.80169286 59.31640625 180.06640625 C59.31769531 180.89269531 59.31898438 181.71898437 59.3203125 182.5703125 C59.31644531 183.42496094 59.31257812 184.27960938 59.30859375 185.16015625 C59.31246094 186.01480469 59.31632813 186.86945313 59.3203125 187.75 C59.31902344 188.57628906 59.31773437 189.40257812 59.31640625 190.25390625 C59.31527832 191.00349609 59.31415039 191.75308594 59.31298828 192.52539062 C59.17979977 194.7227497 58.91229202 196.58098234 58.18359375 198.66015625 C55.9609375 199.85546875 55.9609375 199.85546875 53.12109375 200.78515625 C52.12722656 201.11128906 51.13335938 201.43742188 50.109375 201.7734375 C49.14386719 202.06605469 48.17835938 202.35867188 47.18359375 202.66015625 C46.02923828 203.02173828 46.02923828 203.02173828 44.8515625 203.390625 C40.9306235 204.50768028 38.05139724 205.00867728 34.18359375 203.66015625 C32.5234375 201.4375 32.5234375 201.4375 31.12109375 198.59765625 C30.37279297 197.08945312 30.37279297 197.08945312 29.609375 195.55078125 C29.13886719 194.596875 28.66835938 193.64296875 28.18359375 192.66015625 C27.76464844 191.995 27.34570312 191.32984375 26.9140625 190.64453125 C22.73386458 183.84986326 23.3300193 175.62246193 24.64453125 167.98046875 C25.08477819 166.18757902 25.62093195 164.41847438 26.18359375 162.66015625 C26.84359375 162.66015625 27.50359375 162.66015625 28.18359375 162.66015625 C29.56591818 164.28642029 30.9029689 165.95265645 32.18359375 167.66015625 C31.55710937 166.71914063 30.930625 165.778125 30.28515625 164.80859375 C29.45928235 163.55101304 28.63378123 162.29318747 27.80859375 161.03515625 C27.39609375 160.41769531 26.98359375 159.80023437 26.55859375 159.1640625 C24.12291235 155.43197004 22.39786749 151.99684818 21.18359375 147.66015625 C23.234375 147.953125 25.28515625 148.24609375 27.3359375 148.5390625 C27.94566406 148.57902344 28.55539062 148.61898437 29.18359375 148.66015625 C29.51359375 148.33015625 29.84359375 148.00015625 30.18359375 147.66015625 C29.27609375 147.70140625 28.36859375 147.74265625 27.43359375 147.78515625 C24.17256349 147.65973201 22.87112019 147.3758297 20.18359375 145.66015625 C18.953125 143.85546875 18.953125 143.85546875 17.99609375 141.78515625 C17.67253906 141.10710937 17.34898437 140.4290625 17.015625 139.73046875 C15.14265472 135.07002627 14.97897129 130.59589457 14.8671875 125.61328125 C14.8464064 124.84207947 14.82562531 124.07087769 14.80421448 123.27630615 C14.73900803 120.82101053 14.67996891 118.36561104 14.62109375 115.91015625 C14.57788101 114.2421769 14.53426585 112.57420793 14.49023438 110.90625 C14.38260149 106.82432352 14.28331383 102.74231437 14.18359375 98.66015625 C13.85359375 106.91015625 13.52359375 115.16015625 13.18359375 123.66015625 C9.31068832 119.78725082 7.40889168 116.81379805 5.05859375 112.03515625 C4.70603516 111.31875977 4.35347656 110.60236328 3.99023438 109.86425781 C1.4428213 104.52624762 -0.35875263 99.60011882 -0.81640625 93.66015625 C-0.97109375 92.16162109 -0.97109375 92.16162109 -1.12890625 90.6328125 C-1.44999235 85.22117379 -1.47049544 81.67830607 2.18359375 77.47265625 C3.17668468 76.52784058 4.17465003 75.58802414 5.18359375 74.66015625 C5.18359375 74.33015625 5.18359375 74.00015625 5.18359375 73.66015625 C4.50296875 74.48515625 3.82234375 75.31015625 3.12109375 76.16015625 C0.18359375 78.66015625 0.18359375 78.66015625 -3.31640625 79.22265625 C-7.54682086 78.54276819 -8.86829723 77.75945035 -11.81640625 74.66015625 C-13.93427672 71.73043543 -15.90779003 68.72968337 -17.81640625 65.66015625 C-15.376917 70.83234259 -13.11502748 74.67929209 -8.50390625 78.16015625 C-5.03910956 81.05404894 -5.03910956 81.05404894 -4.12890625 83.53125 C-3.45815539 94.61960022 -9.70385927 108.71801592 -15.81640625 117.66015625 C-17.13640625 118.98015625 -18.45640625 120.30015625 -19.81640625 121.66015625 C-20.47640625 114.40015625 -21.13640625 107.14015625 -21.81640625 99.66015625 C-21.76419922 102.57408203 -21.76419922 102.57408203 -21.7109375 105.546875 C-21.6900376 107.47663203 -21.66925969 109.40639214 -21.65161133 111.33618164 C-21.62951264 113.29393527 -21.59134965 115.25148687 -21.55273438 117.20898438 C-21.47325691 127.62053254 -21.43572287 138.61995667 -28.81640625 146.66015625 C-31.5251996 148.01455293 -33.82573893 147.72517076 -36.81640625 147.66015625 C-35.7720336 148.93394904 -35.7720336 148.93394904 -33.44140625 148.72265625 C-32.14203125 148.69171875 -32.14203125 148.69171875 -30.81640625 148.66015625 C-29.82640625 148.66015625 -28.83640625 148.66015625 -27.81640625 148.66015625 C-30.78640625 155.09515625 -30.78640625 155.09515625 -33.81640625 161.66015625 C-33.15640625 161.66015625 -32.49640625 161.66015625 -31.81640625 161.66015625 C-29.41991123 170.34745071 -28.35195981 179.57766567 -30.87890625 188.34765625 C-33.19048684 192.29971339 -35.59355088 196.17868027 -38.09765625 200.01171875 C-39.85681739 202.64080895 -39.85681739 202.64080895 -41.31640625 205.46484375 C-41.81140625 206.18929687 -42.30640625 206.91375 -42.81640625 207.66015625 C-49.48874033 208.61334683 -55.46146297 206.62271226 -61.81640625 204.66015625 C-65.51630015 186.07259404 -66.64156686 171.19946265 -56.0859375 154.390625 C-55.66699219 153.81957031 -55.24804688 153.24851562 -54.81640625 152.66015625 C-54.48640625 152.66015625 -54.15640625 152.66015625 -53.81640625 152.66015625 C-53.48640625 154.64015625 -53.15640625 156.62015625 -52.81640625 158.66015625 C-53.03296875 156.74203125 -53.03296875 156.74203125 -53.25390625 154.78515625 C-53.33511719 154.06585937 -53.41632813 153.3465625 -53.5 152.60546875 C-53.72933586 150.58611309 -53.72933586 150.58611309 -54.81640625 148.66015625 C-54.96721283 144.8899917 -54.81817664 141.66819111 -54.00390625 137.97265625 C-53.26622994 132.93678598 -55.48923609 128.96918092 -57.58984375 124.4921875 C-63.61572156 110.5789346 -59.92525962 92.32724483 -54.81640625 78.66015625 C-51.95869646 71.73770103 -48.83471676 64.93811929 -45.7109375 58.1328125 C-42.22468421 50.47520483 -39.39022259 42.66382198 -36.81640625 34.66015625 C-32.95498421 35.44399192 -30.80312381 37.08826057 -27.81640625 39.66015625 C-28.55890625 38.93828125 -29.30140625 38.21640625 -30.06640625 37.47265625 C-35.01951612 32.4069757 -37.45205661 28.78238894 -38.56640625 21.72265625 C-38.69144531 21.03236328 -38.81648438 20.34207031 -38.9453125 19.63085938 C-39.64036756 15.60183141 -39.94424288 11.74453664 -39.81640625 7.66015625 C-38.88441406 7.52480469 -37.95242188 7.38945312 -36.9921875 7.25 C-28.40592874 5.8001464 -22.2936578 3.77189243 -14.9140625 -1.01171875 C-9.69272162 -3.25037688 -5.09594143 -1.92969129 0 0 Z " fill="#050202" transform="translate(526.81640625,470.33984375)"/><path d="M0 0 C1.01037827 0.00222061 2.02075653 0.00444122 3.06175232 0.00672913 C4.77341331 0.00684242 4.77341331 0.00684242 6.51965332 0.00695801 C7.76129745 0.01211929 9.00294159 0.01728058 10.2822113 0.02259827 C12.17785072 0.02472069 12.17785072 0.02472069 14.11178589 0.02688599 C17.47705394 0.0315487 20.84225495 0.04053972 24.20750427 0.05158997 C27.63930175 0.06180606 31.07110614 0.06638403 34.50291443 0.07142639 C41.2405633 0.08248071 47.9781803 0.09923742 54.71580505 0.12025452 C53.28824854 6.85669126 51.46036527 13.21449555 49.09080505 19.68275452 C48.73889099 20.64439514 48.38697693 21.60603577 48.0243988 22.59681702 C44.83855085 31.11130745 41.05912076 39.14383725 36.71580505 47.12025452 C35.79541443 48.85082092 35.79541443 48.85082092 34.85643005 50.61634827 C27.36466058 64.25322616 18.41175878 76.81847528 7.71580505 88.12025452 C6.60611879 89.40718233 5.50177667 90.69874115 4.40330505 91.99525452 C-3.69951184 101.25829 -12.53036608 109.61829907 -22.28419495 117.12025452 C-22.83945862 117.55192932 -23.39472229 117.98360413 -23.96681213 118.42835999 C-33.26317385 125.6188737 -42.87974575 131.66802009 -53.28419495 137.12025452 C-53.94032776 137.4668512 -54.59646057 137.81344788 -55.2724762 138.17054749 C-62.89940555 142.17393323 -70.64495619 145.80724208 -78.59669495 149.12025452 C-79.32042297 149.42334534 -80.044151 149.72643616 -80.78981018 150.03871155 C-83.77163077 151.25108841 -86.03416947 152.12025452 -89.28419495 152.12025452 C-89.29354065 151.51141418 -89.30288635 150.90257385 -89.31251526 150.27528381 C-89.39544889 134.21197831 -89.39544889 134.21197831 -94.28419495 119.12025452 C-94.73794495 118.17279358 -95.19169495 117.22533264 -95.65919495 116.24916077 C-96.83014657 113.85070589 -98.03573392 111.47902719 -99.28419495 109.12025452 C-99.94419495 110.77025452 -100.60419495 112.42025452 -101.28419495 114.12025452 C-102.41475321 110.72857973 -102.00735545 108.57535471 -101.28419495 105.12025452 C-101.16055632 101.96746962 -101.14991054 98.95596067 -101.65138245 95.83509827 C-102.6242529 89.5710038 -101.68041041 85.46062315 -99.27638245 79.61634827 C-98.161432 76.81141388 -97.60827794 74.11802223 -97.28419495 71.12025452 C-95.63419495 71.12025452 -93.98419495 71.12025452 -92.28419495 71.12025452 C-92.28419495 78.38025452 -92.28419495 85.64025452 -92.28419495 93.12025452 C-77.70608567 86.0247146 -63.58562845 78.82705775 -51.28419495 68.12025452 C-50.47724182 67.4228717 -49.6702887 66.72548889 -48.83888245 66.00697327 C-46.28181005 63.75049715 -43.77805243 61.44632954 -41.28419495 59.12025452 C-40.42052307 58.33392639 -39.5568512 57.54759827 -38.66700745 56.73744202 C-23.147206 42.02736934 -11.16999036 22.82833944 -3.9052887 2.73744202 C-2.95339302 0.2589212 -2.73615106 0.14404835 0 0 Z " fill="#DB4223" transform="translate(675.2841949462891,515.8797454833984)"/><path d="M0 0 C0.33 0 0.66 0 1 0 C1.02578125 0.60328125 1.0515625 1.2065625 1.078125 1.828125 C1.13484375 2.62734375 1.1915625 3.4265625 1.25 4.25 C1.29640625 5.03890625 1.3428125 5.8278125 1.390625 6.640625 C2.22614884 9.87560193 3.36588563 10.93451985 6 13 C8.64250284 14.37732193 11.36376035 15.50864909 14.125 16.625 C21.76013514 19.76013514 21.76013514 19.76013514 24 22 C26.54464408 22.4774847 29.06521448 22.87990357 31.625 23.25 C39.47146046 24.5509042 44.89161974 26.67877043 49.671875 33.32421875 C52.00415405 38.02307507 51.65632406 42.88067234 51 48 C49.92627988 50.51464323 48.83722716 51.93311945 47 54 C47.99 53.67 48.98 53.34 50 53 C54.52777977 59.57258354 55.76605098 64.1130299 55 72 C54.05244236 75.5177742 52.70400812 78.78903101 51.25 82.125 C50.90195312 82.96675781 50.55390625 83.80851562 50.1953125 84.67578125 C43.98713235 99.50643382 43.98713235 99.50643382 41 101 C36.34665561 101.52569163 31.67536838 101.75317852 27 102 C25.92621094 102.06703125 24.85242188 102.1340625 23.74609375 102.203125 C9.23886822 102.71151338 -3.8898531 97.65092539 -17 92 C-17 91.34 -17 90.68 -17 90 C-14.53398341 88.21457958 -12.07045357 86.56103182 -9.5 84.9375 C-8.74130615 84.4523291 -7.9826123 83.9671582 -7.20092773 83.46728516 C15.49665978 69.09910909 15.49665978 69.09910909 23.625 68.4375 C24.62789062 68.35371094 25.63078125 68.26992188 26.6640625 68.18359375 C27.43492187 68.12300781 28.20578125 68.06242187 29 68 C25.7 67.67 22.4 67.34 19 67 C18.68975555 59.34730365 18.78119806 54.49469925 24.1875 48.625 C24.785625 48.08875 25.38375 47.5525 26 47 C25.34 47 24.68 47 24 47 C23.01 44.69 22.02 42.38 21 40 C21.33 40.99 21.66 41.98 22 43 C22.76815198 48.37706389 20.8458577 51.2985705 18.1796875 55.7421875 C16.53942416 58.88149946 16.22400127 61.49064677 16 65 C15.45472656 64.855625 14.90945313 64.71125 14.34765625 64.5625 C5.97683789 62.50199087 -0.57154003 62.62007922 -9 64.5 C-20.56619373 66.95273053 -32.52221542 67.15850583 -44 64 C-44.14695312 63.12988281 -44.14695312 63.12988281 -44.296875 62.2421875 C-45.08545869 58.12251756 -45.70744138 55.40958207 -48.1875 51.9375 C-50.72760404 47.82077965 -49.96173863 45.64840339 -49 41 C-49.99 42.98 -50.98 44.96 -52 47 C-52.99 47 -53.98 47 -55 47 C-54.50628906 47.40992188 -54.01257813 47.81984375 -53.50390625 48.2421875 C-52.86324219 48.78101563 -52.22257812 49.31984375 -51.5625 49.875 C-50.92441406 50.40867187 -50.28632813 50.94234375 -49.62890625 51.4921875 C-47.69579061 53.2815943 -47.03495764 54.30364379 -46.90234375 56.9453125 C-46.93489583 58.96354167 -46.96744792 60.98177083 -47 63 C-50.96 63 -54.92 63 -59 63 C-59 63.66 -59 64.32 -59 65 C-57.91203125 64.96519531 -56.8240625 64.93039062 -55.703125 64.89453125 C-47.56176674 64.71609052 -40.50640436 65.07734111 -32.61328125 67.3203125 C-24.05525302 69.54616738 -11.86837009 67.93418505 -4 64 C3.56146459 63.38658946 10.01029085 64.03466884 17 67 C17 67.66 17 68.32 17 69 C16.04222656 69.44988281 15.08445312 69.89976562 14.09765625 70.36328125 C6.58734591 73.96483378 -0.55424353 77.83250293 -7.5 82.4375 C-23.26276125 92.87409764 -37.22710281 101.08819145 -56.5625 101.3125 C-57.81836914 101.35600586 -57.81836914 101.35600586 -59.09960938 101.40039062 C-62.91816677 101.43969486 -65.4024077 101.30992373 -68.83203125 99.53125 C-71.80377852 96.06153427 -73.39828898 92.38825349 -75.125 88.1875 C-75.62580078 87.01477539 -75.62580078 87.01477539 -76.13671875 85.81835938 C-76.79409581 84.27545674 -77.44361172 82.72917799 -78.0847168 81.17944336 C-78.66578266 79.79582775 -79.26667753 78.42024406 -79.89379883 77.05688477 C-82.67199283 70.99574609 -83.41026121 64.88279708 -81.09765625 58.515625 C-80.15731796 56.62825562 -79.08989534 54.80513916 -78 53 C-77.01 53 -76.02 53 -75 53 C-75.66 52.2575 -76.32 51.515 -77 50.75 C-80.15870938 45.93781458 -80.07505446 40.50514464 -79 35 C-76.08060187 29.75512142 -71.71981174 25.86993845 -66 24 C-64.23065572 23.87302678 -62.45941439 23.77129011 -60.6875 23.6875 C-55.40932092 23.33325979 -52.74073827 21.83546917 -48.60546875 18.671875 C-44.7259531 16.18247066 -40.44652527 14.79513331 -36.05175781 13.44458008 C-33.8796494 12.75024476 -33.8796494 12.75024476 -31 11 C-29.46513523 7.43892042 -29.46513523 7.43892042 -29 4 C-26.5625 4.75 -26.5625 4.75 -24 6 C-23.1875 8.125 -23.1875 8.125 -23 10 C-23.66 10 -24.32 10 -25 10 C-24.72459296 13.81813447 -24.72459296 13.81813447 -23 17 C-22.31292445 14.50935112 -22 12.62113708 -22 10 C-21.67 9.34 -21.34 8.68 -21 8 C-20.34 8.33 -19.68 8.66 -19 9 C-14.13894559 9.69302201 -10.23460668 9.60657096 -6.125 6.75 C-3.66687422 4.75277281 -1.76394893 2.6459234 0 0 Z " fill="#060402" transform="translate(537,375)"/><path d="M0 0 C3.37218639 3.11278743 5.97287886 6.57870908 8.6328125 10.29296875 C9.90694728 12.12787013 9.90694728 12.12787013 12 13 C17.01580842 13.53677934 17.01580842 13.53677934 21.25 11.1875 C21.8275 10.465625 22.405 9.74375 23 9 C24 8 25 7 26 6 C24.91040244 9.36784701 23.95241954 11.04644759 21.375 13.5625 C18.14948601 17.29378985 18.42413219 21.04539323 18.65234375 25.796875 C19.93686986 37.63183465 24.41436682 48.12155024 31 58 C31.01981934 57.2886792 31.03963867 56.5773584 31.06005859 55.84448242 C31.15524867 52.62511184 31.26495229 49.4063955 31.375 46.1875 C31.42140625 44.50817383 31.42140625 44.50817383 31.46875 42.79492188 C31.50742187 41.72177734 31.54609375 40.64863281 31.5859375 39.54296875 C31.6173584 38.55321045 31.6487793 37.56345215 31.68115234 36.54370117 C32 34 32 34 34 31 C34.01458252 32.10400146 34.02916504 33.20800293 34.04418945 34.34545898 C34.10256657 38.47760925 34.17979393 42.60923684 34.26245117 46.7409668 C34.29551638 48.52245543 34.32360442 50.30404418 34.34643555 52.08569336 C34.38032307 54.66042386 34.43265143 57.2342518 34.48828125 59.80859375 C34.49467117 60.59334579 34.5010611 61.37809784 34.50764465 62.18663025 C34.65661668 67.90725466 35.9763703 72.66926366 38 78 C38.33 78.99 38.66 79.98 39 81 C39.69867187 81.06058594 40.39734375 81.12117187 41.1171875 81.18359375 C42.48230469 81.30927734 42.48230469 81.30927734 43.875 81.4375 C45.23238281 81.55931641 45.23238281 81.55931641 46.6171875 81.68359375 C49 82 49 82 51 83 C47.75366476 85.1642235 46.75698557 85.37569856 43 85 C41.515 84.01 41.515 84.01 40 83 C43.65332428 89.9309521 47.52178798 96.56852529 52 103 C51.67 103.66 51.34 104.32 51 105 C47 100.25 47 100.25 47 98 C46.34 98 45.68 98 45 98 C43.12575935 109.71400409 42.59129538 119.69411014 49 130 C49.94488679 131.66249 50.88270377 133.32902334 51.8125 135 C52.23144531 135.721875 52.65039062 136.44375 53.08203125 137.1875 C54 139 54 139 54 141 C50.08599074 141.68290834 46.16847178 142.3432233 42.25 143 C41.15816406 143.19078125 40.06632813 143.3815625 38.94140625 143.578125 C37.85214844 143.75859375 36.76289062 143.9390625 35.640625 144.125 C34.65610352 144.29257812 33.67158203 144.46015625 32.65722656 144.6328125 C27.46283085 145.1543326 22.22051051 145 17 145 C16.67 111.01 16.34 77.02 16 42 C13.77032066 44.22967934 12.65838695 46.33846483 11.1875 49.125 C8.38785758 54.4240551 8.38785758 54.4240551 6.77612305 56.81738281 C3.37153772 61.88096879 1.75582583 66.56991343 0.4375 72.5 C-2.81347352 86.81347352 -2.81347352 86.81347352 -7 91 C-7.21820916 93.69124626 -7.28152494 95.46902401 -6.00247192 97.88140869 C-4.8527593 100.31117367 -4.75791705 101.90923577 -4.77294922 104.58496094 C-4.77310028 105.48559265 -4.77325134 106.38622437 -4.77340698 107.31414795 C-4.78372955 108.27782288 -4.79405212 109.2414978 -4.8046875 110.234375 C-4.8075174 111.22753723 -4.81034729 112.22069946 -4.81326294 113.24395752 C-4.82444857 116.41276144 -4.84955038 119.58128165 -4.875 122.75 C-4.88503188 124.8997355 -4.89415737 127.04947543 -4.90234375 129.19921875 C-4.92438259 134.46624246 -4.95784416 139.73310096 -5 145 C-6.4361115 145.00593478 -7.87223013 145.010162 -9.30834961 145.01367188 C-10.10808701 145.01620972 -10.9078244 145.01874756 -11.73179626 145.0213623 C-14.36567205 144.99655604 -16.94562016 144.7948597 -19.5625 144.5 C-20.40941406 144.4071875 -21.25632812 144.314375 -22.12890625 144.21875 C-22.74636719 144.1465625 -23.36382812 144.074375 -24 144 C-22.58578354 138.94591495 -20.35096633 135.15544816 -17.4375 130.875 C-10.23722176 120.26050532 -11.28319653 109.44682514 -13 97 C-14.485 97.495 -14.485 97.495 -16 98 C-14.50829734 93.0276578 -12.39542583 88.58154261 -10 84 C-11.0725 84.226875 -12.145 84.45375 -13.25 84.6875 C-17 85 -17 85 -19.4375 83.5625 C-19.953125 83.046875 -20.46875 82.53125 -21 82 C-20.505 81.01 -20.505 81.01 -20 80 C-19.34 80.66 -18.68 81.32 -18 82 C-14.2719069 82.57992559 -12.52573788 82.33011448 -9.3125 80.3125 C-1.84637704 71.67410924 -3.63800591 56.37773199 -3.8125 45.6875 C-3.82758981 44.06055941 -3.84127053 42.43360511 -3.85351562 40.80664062 C-3.88614519 36.87074729 -3.93768344 32.93553062 -4 29 C-3.67 29 -3.34 29 -3 29 C-2.01 37.91 -1.02 46.82 0 56 C6.57130213 45.30771179 14.48210885 31.98604603 13.6875 18.875 C12.47405645 15.5656085 9.85242534 13.84795834 7.11328125 11.765625 C3.89987604 9.08085761 1.79868339 5.7616696 0 2 C0 1.34 0 0.68 0 0 Z " fill="#DB4324" transform="translate(508,535)"/><path d="M0 0 C0.33 0.66 0.66 1.32 1 2 C0.690625 2.763125 0.38125 3.52625 0.0625 4.3125 C-1.13446644 7.340121 -1.52367034 8.78316788 -1 12 C-0.20261241 13.31416143 0.63550806 14.60397644 1.5 15.875 C4.18363684 19.85131825 4.49221267 22.27475839 4 27 C17.32154323 28.69162454 29.61179989 28.58406133 42.6953125 25.6796875 C50.59737726 24.05444014 56.54942868 25.04090784 64 28 C63.896875 27.030625 63.79375 26.06125 63.6875 25.0625 C63.65173326 21.52874635 64.69110119 19.44383886 66.5 16.4375 C68.72091337 12.72549182 69.68611306 10.41072681 69 6 C68.07585059 2.72435637 68.07585059 2.72435637 67 0 C70.67230705 3.07999946 71.56802365 5.2482602 72 10 C73.32 9.67 74.64 9.34 76 9 C74.8553125 10.051875 74.8553125 10.051875 73.6875 11.125 C68.24737367 16.94467002 67.44027913 22.31788836 67 30 C67.68707031 29.97679687 68.37414062 29.95359375 69.08203125 29.9296875 C70.43361328 29.90261719 70.43361328 29.90261719 71.8125 29.875 C72.70582031 29.85179687 73.59914063 29.82859375 74.51953125 29.8046875 C77 30 77 30 80 32 C79.16339844 31.979375 78.32679688 31.95875 77.46484375 31.9375 C62.08410261 32.21002697 51.08780678 40.66935847 38.81347656 49.13793945 C38.08483398 49.63898193 37.35619141 50.14002441 36.60546875 50.65625 C35.95731201 51.10806641 35.30915527 51.55988281 34.64135742 52.02539062 C33 53 33 53 31 53 C31 53.66 31 54.32 31 55 C31.66644531 55.10441406 32.33289063 55.20882812 33.01953125 55.31640625 C36.7256395 56.16643108 40.16154588 57.54443795 43.6875 58.9375 C54.35116824 63.01006883 63.53571021 64.41406013 75 64 C76.26585937 63.95875 77.53171875 63.9175 78.8359375 63.875 C85.0636635 63.99794601 85.0636635 63.99794601 90.56005859 61.75317383 C92.22527952 59.72571511 93.01905728 57.89325027 93.9375 55.4375 C94.44410156 54.11878906 94.44410156 54.11878906 94.9609375 52.7734375 C95.47527344 51.40058594 95.47527344 51.40058594 96 50 C96.68009512 48.18470853 97.36732751 46.37207114 98.0625 44.5625 C98.36285156 43.75941406 98.66320312 42.95632813 98.97265625 42.12890625 C100.04271045 39.91149356 101.25214 38.6968896 103 37 C103.50249984 34.56251473 103.50249984 34.56251473 103.5625 31.9375 C103.79166667 27.20833333 103.79166667 27.20833333 106 25 C108.51674901 34.41652937 107.57309485 40.55442574 103.8125 49.4375 C103.39935547 50.48615234 102.98621094 51.53480469 102.56054688 52.61523438 C98.00382331 63.99617669 98.00382331 63.99617669 94 68 C93.70252954 69.98935457 93.70252954 69.98935457 93.75949097 72.30264282 C93.75674164 73.20570663 93.75399231 74.10877045 93.75115967 75.03919983 C93.75835022 76.0325383 93.76554077 77.02587677 93.77294922 78.04931641 C93.77265717 79.09324051 93.77236511 80.13716461 93.77206421 81.21272278 C93.77346158 84.67575285 93.78904203 88.13856984 93.8046875 91.6015625 C93.80841618 93.9976693 93.81126383 96.39377761 93.81326294 98.78988647 C93.82091082 105.10612169 93.84056923 111.42226538 93.8626709 117.73846436 C93.88310448 124.17979697 93.89225933 130.62114433 93.90234375 137.0625 C93.92381402 149.70837245 93.95758113 162.35418137 94 175 C93.01 175 92.02 175 91 175 C90.67 176.32 90.34 177.64 90 179 C89.97812622 178.09459473 89.97812622 178.09459473 89.95581055 177.17089844 C89.57238488 160.84939659 89.57238488 160.84939659 86 145 C85.58216008 143.6266585 85.16559727 142.25292808 84.75 140.87890625 C82.08858101 132.30973225 78.8611157 124.26942775 74.90942383 116.21777344 C67 99.90422727 67 99.90422727 67 93 C65.72881136 93.79109602 64.45806377 94.58290078 63.1875 95.375 C62.47980469 95.81585938 61.77210938 96.25671875 61.04296875 96.7109375 C59.34567961 97.78188476 57.66985642 98.88676239 56 100 C57.36303897 96.84456479 58.8182613 95.06811867 61.5 92.9375 C63.93664912 90.99127814 65.22262121 89.66606818 67 87 C67.27701221 84.14420402 67.46456987 81.36147077 67.5625 78.5 C67.88209555 70.35371334 67.88209555 70.35371334 69 67 C68.27039063 66.99742187 67.54078125 66.99484375 66.7890625 66.9921875 C55.26494263 66.56536825 44.64413599 62.99291081 34.1640625 58.30859375 C30.06149313 56.6118521 28.27953472 56.78746516 24 58 C21.21758024 59.4546389 18.50256938 61.00753233 15.77734375 62.56640625 C9.96096003 65.56867464 4.46810707 66.09226972 -2 66 C-1.47062358 69.56823951 -0.89574382 73.12770149 -0.3125 76.6875 C-0.16361328 77.69490234 -0.01472656 78.70230469 0.13867188 79.74023438 C1.13984704 85.68839271 2.02329428 89.14305306 7 93 C8.33333333 94.33333333 9.66666667 95.66666667 11 97 C10.67 97.66 10.34 98.32 10 99 C8.53515625 97.73046875 7.0703125 96.4609375 5.60546875 95.19140625 C3.89287029 93.79128769 3.89287029 93.79128769 1 93 C0.84144531 93.64324219 0.68289063 94.28648437 0.51953125 94.94921875 C-1.86645333 104.18996568 -5.08338085 112.97827934 -9.1484375 121.60546875 C-18.75125597 142.01170981 -25.90269843 163.18381593 -18.0703125 185.43359375 C-17.0557192 187.96511449 -17.0557192 187.96511449 -15.875 190.17578125 C-14.74688657 192.5276963 -14.85701639 194.42629505 -15 197 C-15.268125 196.401875 -15.53625 195.80375 -15.8125 195.1875 C-17.00987475 192.98180967 -18.04478984 191.56416813 -20 190 C-20.99 190 -21.98 190 -23 190 C-31.18989936 169.3790034 -27.99163898 150.20549498 -20 130 C-17.9616825 125.29130889 -15.79076973 120.64542627 -13.62548828 115.99414062 C-5.8359869 99.14714871 -4.04694326 88.07111655 -8 70 C-8.91523438 69.93941406 -9.83046875 69.87882812 -10.7734375 69.81640625 C-12.55621094 69.69072266 -12.55621094 69.69072266 -14.375 69.5625 C-16.15003906 69.44068359 -16.15003906 69.44068359 -17.9609375 69.31640625 C-21 69 -21 69 -23 68 C-23 69.98 -23 71.96 -23 74 C-62.93 74 -102.86 74 -144 74 C-144 73.67 -144 73.34 -144 73 C-104.4 73 -64.8 73 -24 73 C-24 70.69 -24 68.38 -24 66 C-23.34 66 -22.68 66 -22 66 C-21.505 64.515 -21.505 64.515 -21 63 C-20.38068604 63.01047363 -19.76137207 63.02094727 -19.12329102 63.03173828 C-16.26973665 63.07376099 -13.41624774 63.09947127 -10.5625 63.125 C-9.10166992 63.15013672 -9.10166992 63.15013672 -7.61132812 63.17578125 C13.19697702 63.31496724 29.05510961 52.04737577 45.9375 41.1875 C60.29574275 32 60.29574275 32 65 32 C65 31.34 65 30.68 65 30 C53.63914284 26.97043809 44.17382946 27.56751644 33 31 C25.88418474 32.56547936 19.51263054 32.53180036 12.5 30.5625 C4.76615967 28.43869929 -3.02803717 28.27391815 -11 28 C-11 27.34 -11 26.68 -11 26 C-7.04 26 -3.08 26 1 26 C0.28049731 18.61730728 0.28049731 18.61730728 -4 13 C-4.99 12.34 -5.98 11.68 -7 11 C-7.99 10.01 -7.99 10.01 -9 9 C-7.35 9.33 -5.7 9.66 -4 10 C-3.8453125 8.9171875 -3.8453125 8.9171875 -3.6875 7.8125 C-2.94013068 4.75508007 -1.71954811 2.61670365 0 0 Z " fill="#E05E27" transform="translate(489,412)"/><path d="M0 0 C3.54926341 -0.08066508 6.58353929 0.05752808 10 1 C10.99 1 11.98 1 13 1 C14.68704193 2.30745749 16.35360035 3.64172029 18 5 C18.99 5.33 19.98 5.66 21 6 C24.28641863 10.10034474 24.35149509 13.47919909 24.25 18.625 C24.23453125 19.93726563 24.2190625 21.24953125 24.203125 22.6015625 C24 26 24 26 23 29 C23.99 29.33 24.98 29.66 26 30 C25.88490339 31.41750563 25.75746342 32.83401169 25.625 34.25 C25.52058594 35.43335938 25.52058594 35.43335938 25.4140625 36.640625 C24.98492887 39.085877 24.21399362 40.84836903 23 43 C22.34 43 21.68 43 21 43 C20.979375 43.99 20.95875 44.98 20.9375 46 C20.22905463 51.19174143 16.67344043 54.51103365 13 58 C8.49494299 61.00337134 4.26964181 60.93458859 -1 60 C-6.82856442 56.78620755 -10.07387742 52.25989839 -12 46 C-12 45.01 -12 44.02 -12 43 C-12.99 42.67 -13.98 42.34 -15 42 C-17.76159346 38.36632439 -17.14498705 34.34961164 -17 30 C-16.34 30 -15.68 30 -15 30 C-15.165 28.865625 -15.33 27.73125 -15.5 26.5625 C-16.92899038 14.73130025 -16.92899038 14.73130025 -14.625 10.4375 C-13 9 -13 9 -11 9 C-11.33 8.01 -11.66 7.02 -12 6 C-9.65085508 3.65085508 -8.04320554 3.26859643 -4.875 2.375 C-3.96492187 2.11460937 -3.05484375 1.85421875 -2.1171875 1.5859375 C-1.41851563 1.39257812 -0.71984375 1.19921875 0 1 C0 0.67 0 0.34 0 0 Z " fill="#030201" transform="translate(518,323)"/><path d="M0 0 C0.33 0.66 0.66 1.32 1 2 C0.690625 2.763125 0.38125 3.52625 0.0625 4.3125 C-1.13446644 7.340121 -1.52367034 8.78316788 -1 12 C-0.20261241 13.31416143 0.63550806 14.60397644 1.5 15.875 C4.18363684 19.85131825 4.49221267 22.27475839 4 27 C17.32154323 28.69162454 29.61179989 28.58406133 42.6953125 25.6796875 C50.59737726 24.05444014 56.54942868 25.04090784 64 28 C63.896875 27.030625 63.79375 26.06125 63.6875 25.0625 C63.65173326 21.52874635 64.69110119 19.44383886 66.5 16.4375 C68.72091337 12.72549182 69.68611306 10.41072681 69 6 C68.07585059 2.72435637 68.07585059 2.72435637 67 0 C70.67230705 3.07999946 71.56802365 5.2482602 72 10 C73.32 9.67 74.64 9.34 76 9 C74.8553125 10.051875 74.8553125 10.051875 73.6875 11.125 C68.24737367 16.94467002 67.44027913 22.31788836 67 30 C67.68707031 29.97679687 68.37414062 29.95359375 69.08203125 29.9296875 C70.43361328 29.90261719 70.43361328 29.90261719 71.8125 29.875 C72.70582031 29.85179687 73.59914063 29.82859375 74.51953125 29.8046875 C77 30 77 30 80 32 C79.16339844 31.979375 78.32679688 31.95875 77.46484375 31.9375 C62.08410261 32.21002697 51.08780678 40.66935847 38.81347656 49.13793945 C38.08483398 49.63898193 37.35619141 50.14002441 36.60546875 50.65625 C35.95731201 51.10806641 35.30915527 51.55988281 34.64135742 52.02539062 C33 53 33 53 31 53 C31 53.66 31 54.32 31 55 C31.66 55.33 32.32 55.66 33 56 C31.741875 56.20625 30.48375 56.4125 29.1875 56.625 C25.17015231 57.49532022 22.05315313 58.94528522 18.5 61 C11.64380937 64.9315219 5.85169271 66.11200703 -2 66 C-1.47062358 69.56823951 -0.89574382 73.12770149 -0.3125 76.6875 C-0.16361328 77.69490234 -0.01472656 78.70230469 0.13867188 79.74023438 C1.13984704 85.68839271 2.02329428 89.14305306 7 93 C8.33333333 94.33333333 9.66666667 95.66666667 11 97 C10.67 97.66 10.34 98.32 10 99 C8.53515625 97.73046875 7.0703125 96.4609375 5.60546875 95.19140625 C3.89287029 93.79128769 3.89287029 93.79128769 1 93 C0.84144531 93.64324219 0.68289063 94.28648437 0.51953125 94.94921875 C-1.86645333 104.18996568 -5.08338085 112.97827934 -9.1484375 121.60546875 C-18.75125597 142.01170981 -25.90269843 163.18381593 -18.0703125 185.43359375 C-17.0557192 187.96511449 -17.0557192 187.96511449 -15.875 190.17578125 C-14.74688657 192.5276963 -14.85701639 194.42629505 -15 197 C-15.268125 196.401875 -15.53625 195.80375 -15.8125 195.1875 C-17.00987475 192.98180967 -18.04478984 191.56416813 -20 190 C-20.99 190 -21.98 190 -23 190 C-31.18989936 169.3790034 -27.99163898 150.20549498 -20 130 C-17.9616825 125.29130889 -15.79076973 120.64542627 -13.62548828 115.99414062 C-5.8359869 99.14714871 -4.04694326 88.07111655 -8 70 C-8.91523438 69.93941406 -9.83046875 69.87882812 -10.7734375 69.81640625 C-12.55621094 69.69072266 -12.55621094 69.69072266 -14.375 69.5625 C-16.15003906 69.44068359 -16.15003906 69.44068359 -17.9609375 69.31640625 C-21 69 -21 69 -23 68 C-23 69.98 -23 71.96 -23 74 C-62.93 74 -102.86 74 -144 74 C-144 73.67 -144 73.34 -144 73 C-104.4 73 -64.8 73 -24 73 C-24 70.69 -24 68.38 -24 66 C-23.34 66 -22.68 66 -22 66 C-21.505 64.515 -21.505 64.515 -21 63 C-20.38068604 63.01047363 -19.76137207 63.02094727 -19.12329102 63.03173828 C-16.26973665 63.07376099 -13.41624774 63.09947127 -10.5625 63.125 C-9.10166992 63.15013672 -9.10166992 63.15013672 -7.61132812 63.17578125 C13.19697702 63.31496724 29.05510961 52.04737577 45.9375 41.1875 C60.29574275 32 60.29574275 32 65 32 C65 31.34 65 30.68 65 30 C53.63914284 26.97043809 44.17382946 27.56751644 33 31 C25.88418474 32.56547936 19.51263054 32.53180036 12.5 30.5625 C4.76615967 28.43869929 -3.02803717 28.27391815 -11 28 C-11 27.34 -11 26.68 -11 26 C-7.04 26 -3.08 26 1 26 C0.28049731 18.61730728 0.28049731 18.61730728 -4 13 C-4.99 12.34 -5.98 11.68 -7 11 C-7.99 10.01 -7.99 10.01 -9 9 C-7.35 9.33 -5.7 9.66 -4 10 C-3.8453125 8.9171875 -3.8453125 8.9171875 -3.6875 7.8125 C-2.94013068 4.75508007 -1.71954811 2.61670365 0 0 Z " fill="#D2712F" transform="translate(489,412)"/><path d="M0 0 C3.37218639 3.11278743 5.97287886 6.57870908 8.6328125 10.29296875 C9.90694728 12.12787013 9.90694728 12.12787013 12 13 C17.01580842 13.53677934 17.01580842 13.53677934 21.25 11.1875 C21.8275 10.465625 22.405 9.74375 23 9 C24 8 25 7 26 6 C24.91040244 9.36784701 23.95241954 11.04644759 21.375 13.5625 C18.15134276 17.28064153 18.49567916 21.00915056 18.69140625 25.7421875 C19.17839925 30.88335409 19.99446772 35.93642675 21 41 C20.34 41 19.68 41 19 41 C19.17273438 42.02738281 19.34546875 43.05476562 19.5234375 44.11328125 C20.2209188 49.77816026 19.92384784 55.3909301 19.70504761 61.08187866 C19.5611693 64.86654186 19.44167958 68.65193647 19.32421875 72.4375 C19.29757645 73.29542648 19.27093414 74.15335297 19.2434845 75.03727722 C18.85367765 88.21478289 18.67646145 101.39780559 18.47045135 114.57922745 C18.43740149 116.69380272 18.40406571 118.80837333 18.3706665 120.92294312 C18.24411834 128.9485837 18.12050404 136.97426638 18 145 C17.67 145 17.34 145 17 145 C16.67 111.01 16.34 77.02 16 42 C13.77032066 44.22967934 12.65838695 46.33846483 11.1875 49.125 C8.38785758 54.4240551 8.38785758 54.4240551 6.77612305 56.81738281 C3.37153772 61.88096879 1.75582583 66.56991343 0.4375 72.5 C-2.81347352 86.81347352 -2.81347352 86.81347352 -7 91 C-7.21820916 93.69124626 -7.28152494 95.46902401 -6.00247192 97.88140869 C-4.8527593 100.31117367 -4.75791705 101.90923577 -4.77294922 104.58496094 C-4.77310028 105.48559265 -4.77325134 106.38622437 -4.77340698 107.31414795 C-4.78372955 108.27782288 -4.79405212 109.2414978 -4.8046875 110.234375 C-4.8075174 111.22753723 -4.81034729 112.22069946 -4.81326294 113.24395752 C-4.82444857 116.41276144 -4.84955038 119.58128165 -4.875 122.75 C-4.88503188 124.8997355 -4.89415737 127.04947543 -4.90234375 129.19921875 C-4.92438259 134.46624246 -4.95784416 139.73310096 -5 145 C-6.4361115 145.00593478 -7.87223013 145.010162 -9.30834961 145.01367188 C-10.10808701 145.01620972 -10.9078244 145.01874756 -11.73179626 145.0213623 C-14.36567205 144.99655604 -16.94562016 144.7948597 -19.5625 144.5 C-20.40941406 144.4071875 -21.25632812 144.314375 -22.12890625 144.21875 C-22.74636719 144.1465625 -23.36382812 144.074375 -24 144 C-22.58578354 138.94591495 -20.35096633 135.15544816 -17.4375 130.875 C-10.23722176 120.26050532 -11.28319653 109.44682514 -13 97 C-14.485 97.495 -14.485 97.495 -16 98 C-14.50829734 93.0276578 -12.39542583 88.58154261 -10 84 C-11.0725 84.226875 -12.145 84.45375 -13.25 84.6875 C-17 85 -17 85 -19.4375 83.5625 C-19.953125 83.046875 -20.46875 82.53125 -21 82 C-20.505 81.01 -20.505 81.01 -20 80 C-19.34 80.66 -18.68 81.32 -18 82 C-14.2719069 82.57992559 -12.52573788 82.33011448 -9.3125 80.3125 C-1.84637704 71.67410924 -3.63800591 56.37773199 -3.8125 45.6875 C-3.82758981 44.06055941 -3.84127053 42.43360511 -3.85351562 40.80664062 C-3.88614519 36.87074729 -3.93768344 32.93553062 -4 29 C-3.67 29 -3.34 29 -3 29 C-2.01 37.91 -1.02 46.82 0 56 C6.57130213 45.30771179 14.48210885 31.98604603 13.6875 18.875 C12.47405645 15.5656085 9.85242534 13.84795834 7.11328125 11.765625 C3.89987604 9.08085761 1.79868339 5.7616696 0 2 C0 1.34 0 0.68 0 0 Z " fill="#D15229" transform="translate(508,535)"/><path d="M0 0 C1.140625 1.5390625 1.140625 1.5390625 2 4 C1.39819175 6.62216451 0.70171025 8.8806426 -0.25 11.375 C-0.65303345 12.48125732 -0.65303345 12.48125732 -1.06420898 13.60986328 C-3.04604508 18.8922082 -5.34769689 23.9892914 -7.75146484 29.09106445 C-17.15501352 49.0591586 -23.71266448 69.72365314 -16.0703125 91.43359375 C-15.0557192 93.96511449 -15.0557192 93.96511449 -13.875 96.17578125 C-12.74688657 98.5276963 -12.85701639 100.42629505 -13 103 C-13.268125 102.401875 -13.53625 101.80375 -13.8125 101.1875 C-15.00987475 98.98180967 -16.04478984 97.56416813 -18 96 C-18.99 96 -19.98 96 -21 96 C-29.53558693 74.50861148 -25.76869173 54.01878376 -16.80761719 33.234375 C-15.08797949 29.40540225 -13.33087174 25.59554942 -11.54638672 21.79638672 C-8.81834716 15.95653079 -6.55626677 10.29086048 -4.9140625 4.046875 C-4 2 -4 2 -1.8984375 0.703125 C-1.27195312 0.47109375 -0.64546875 0.2390625 0 0 Z " fill="#DF652B" transform="translate(487,506)"/><path d="M0 0 C2.8125 0.0625 2.8125 0.0625 6 1 C9.35211438 6.78452737 9.40023446 11.95867055 9.29296875 18.52734375 C9.28872391 19.51626114 9.28447906 20.50517853 9.28010559 21.52406311 C9.26340129 24.66216009 9.22576415 27.79959928 9.1875 30.9375 C9.17244251 33.07355839 9.15875597 35.20962691 9.14648438 37.34570312 C9.11352493 42.56402402 9.06340838 47.781965 9 53 C7.5638885 53.00593478 6.12776987 53.010162 4.69165039 53.01367188 C3.89191299 53.01620972 3.0921756 53.01874756 2.26820374 53.0213623 C-0.36567205 52.99655604 -2.94562016 52.7948597 -5.5625 52.5 C-6.40941406 52.4071875 -7.25632812 52.314375 -8.12890625 52.21875 C-8.74636719 52.1465625 -9.36382812 52.074375 -10 52 C-8.58578354 46.94591495 -6.35096633 43.15544816 -3.4375 38.875 C3.76277824 28.26050532 2.71680347 17.44682514 1 5 C0.01 5.33 -0.98 5.66 -2 6 C-1.34 4.02 -0.68 2.04 0 0 Z " fill="#D94424" transform="translate(494,627)"/><path d="M0 0 C0.66 0.99 1.32 1.98 2 3 C1.50886719 3.47953125 1.01773437 3.9590625 0.51171875 4.453125 C-1.69954482 8.17856129 -1.32474299 11.50602447 -1.1875 15.75 C-1.17396484 16.54277344 -1.16042969 17.33554687 -1.14648438 18.15234375 C-1.11125223 20.10185564 -1.05744821 22.05101626 -1 24 C-1.66 24 -2.32 24 -3 24 C-2.74379316 25.6065676 -2.46944129 27.2102483 -2.1875 28.8125 C-2.03667969 29.70582031 -1.88585937 30.59914063 -1.73046875 31.51953125 C-0.92020649 34.27095657 -0.01960912 35.0574752 2 37 C2.64237829 38.58144826 3.22145177 40.18945803 3.75 41.8125 C5.75014014 46.92896336 7.911521 50.59164069 13 53 C17.67694615 53.94365482 21.93556843 54.03756405 26.26171875 51.86328125 C28.40546829 50.39889042 28.40546829 50.39889042 31 48 C29.47759883 52.26272329 26.96724754 53.98031034 23 56 C19.96481042 56.32647417 17.0394094 56.21883748 14 56 C13.34 56 12.68 56 12 56 C12.33 56.99 12.66 57.98 13 59 C12.01 59.495 12.01 59.495 11 60 C11 62.31 11 64.62 11 67 C8.70423322 64.70423322 7.9361625 63.09653751 7 60 C7.375 57.3125 7.375 57.3125 8 55 C8 54.34 8 53.68 8 53 C7.01 52.34 6.02 51.68 5 51 C4.79375 51.61875 4.5875 52.2375 4.375 52.875 C2.42890868 55.88259567 0.41074864 56.2183701 -3 57 C-3.66 56.67 -4.32 56.34 -5 56 C-5 55.34 -5 54.68 -5 54 C-4.01 53.505 -4.01 53.505 -3 53 C-2.40566801 43.30866381 -2.40566801 43.30866381 -7 35 C-8.72382256 30.86282586 -9.31244082 27.47831846 -9 23 C-8.67 22.67 -8.34 22.34 -8 22 C-7.84084709 19.93985399 -7.72295071 17.87646146 -7.625 15.8125 C-7.27430921 10.88664318 -6.93136052 7.12561852 -4 3 C-1.8125 1.125 -1.8125 1.125 0 0 Z " fill="#E99139" transform="translate(504,329)"/><path d="M0 0 C0.33 0.66 0.66 1.32 1 2 C0.690625 2.763125 0.38125 3.52625 0.0625 4.3125 C-1.13446644 7.340121 -1.52367034 8.78316788 -1 12 C-0.20261241 13.31416143 0.63550806 14.60397644 1.5 15.875 C4.18363684 19.85131825 4.49221267 22.27475839 4 27 C17.32154323 28.69162454 29.61179989 28.58406133 42.6953125 25.6796875 C50.59737726 24.05444014 56.54942868 25.04090784 64 28 C63.896875 27.030625 63.79375 26.06125 63.6875 25.0625 C63.65173326 21.52874635 64.69110119 19.44383886 66.5 16.4375 C68.72091337 12.72549182 69.68611306 10.41072681 69 6 C68.07585059 2.72435637 68.07585059 2.72435637 67 0 C70.67230705 3.07999946 71.56802365 5.2482602 72 10 C73.32 9.67 74.64 9.34 76 9 C74.8553125 10.051875 74.8553125 10.051875 73.6875 11.125 C68.24737367 16.94467002 67.44027913 22.31788836 67 30 C67.68707031 29.97679687 68.37414062 29.95359375 69.08203125 29.9296875 C70.43361328 29.90261719 70.43361328 29.90261719 71.8125 29.875 C72.70582031 29.85179687 73.59914063 29.82859375 74.51953125 29.8046875 C77 30 77 30 80 32 C79.0821875 32.02578125 78.164375 32.0515625 77.21875 32.078125 C69.62422425 32.42913249 64.60089399 33.33283667 58 37 C55.7890625 36.6171875 55.7890625 36.6171875 54 36 C55.26691507 35.32591692 56.53870749 34.66099503 57.8125 34 C58.52019531 33.62875 59.22789062 33.2575 59.95703125 32.875 C62 32 62 32 65 32 C65 31.34 65 30.68 65 30 C53.63914284 26.97043809 44.17382946 27.56751644 33 31 C25.88418474 32.56547936 19.51263054 32.53180036 12.5 30.5625 C4.76615967 28.43869929 -3.02803717 28.27391815 -11 28 C-11 27.34 -11 26.68 -11 26 C-7.04 26 -3.08 26 1 26 C0.28049731 18.61730728 0.28049731 18.61730728 -4 13 C-4.99 12.34 -5.98 11.68 -7 11 C-7.66 10.34 -8.32 9.68 -9 9 C-7.35 9.33 -5.7 9.66 -4 10 C-3.8453125 8.9171875 -3.8453125 8.9171875 -3.6875 7.8125 C-2.94013068 4.75508007 -1.71954811 2.61670365 0 0 Z " fill="#CE6D2C" transform="translate(489,412)"/><path d="M0 0 C2.72502965 -0.37722015 2.72502965 -0.37722015 5 -1 C4.67 -0.01 4.34 0.98 4 2 C1.27707244 3.27148622 -1.38127891 4.38545868 -4.1875 5.4375 C-8.50774727 7.07646849 -12.38556984 8.57818586 -16.21484375 11.20703125 C-19.29579883 13.19042309 -20.77360793 13.44466984 -24.375 13.25 C-25.24898438 13.21390625 -26.12296875 13.1778125 -27.0234375 13.140625 C-27.67570312 13.09421875 -28.32796875 13.0478125 -29 13 C-29 12.67 -29 12.34 -29 12 C-26.69 12 -24.38 12 -22 12 C-22 11.01 -22 10.02 -22 9 C-24.97 9 -27.94 9 -31 9 C-31 8.67 -31 8.34 -31 8 C-30.3709375 7.98582031 -29.741875 7.97164063 -29.09375 7.95703125 C-23.2921171 7.63374749 -19.69510361 6.58482958 -14.94140625 3.28125 C-10.14531433 0.11602234 -5.67826774 -1.53466696 0 0 Z " fill="#E28933" transform="translate(502,385)"/><path d="M0 0 C0.33 0 0.66 0 1 0 C1 2.64 1 5.28 1 8 C1.99 7.67 2.98 7.34 4 7 C4.10957031 7.56847656 4.21914063 8.13695312 4.33203125 8.72265625 C5.12347038 12.57690049 5.93199133 15.8561355 7.625 19.4375 C9.41097094 24.06478834 9.26604178 28.10286057 9 33 C8.67 33 8.34 33 8 33 C7.34 30.69 6.68 28.38 6 26 C5.95101562 26.66386719 5.90203125 27.32773437 5.8515625 28.01171875 C5.10896309 36.78207381 5.10896309 36.78207381 3 41 C2.06576355 37.98968256 1.95550089 37.13349732 3 34 C3.77660218 26.83234382 2.65946852 22.17535312 -1 16 C-2.65 16.66 -4.3 17.32 -6 18 C-5.65066406 17.53851563 -5.30132813 17.07703125 -4.94140625 16.6015625 C-1.13078673 11.13931469 -0.14905394 6.61257468 0 0 Z " fill="#EA782D" transform="translate(588,413)"/><path d="M0 0 C0.33 0.66 0.66 1.32 1 2 C0.690625 2.763125 0.38125 3.52625 0.0625 4.3125 C-1.13446644 7.340121 -1.52367034 8.78316788 -1 12 C-0.20261241 13.31416143 0.63550806 14.60397644 1.5 15.875 C4.18363684 19.85131825 4.49221267 22.27475839 4 27 C4.82177734 27.07347656 4.82177734 27.07347656 5.66015625 27.1484375 C13.47085524 27.88505627 21.22873284 28.93274598 29 30 C27 32 27 32 23.125 32.3125 C19.36400212 32.24086195 16.11503919 31.57829613 12.5 30.5625 C4.76615967 28.43869929 -3.02803717 28.27391815 -11 28 C-11 27.34 -11 26.68 -11 26 C-7.04 26 -3.08 26 1 26 C0.28049731 18.61730728 0.28049731 18.61730728 -4 13 C-4.99 12.34 -5.98 11.68 -7 11 C-7.66 10.34 -8.32 9.68 -9 9 C-7.35 9.33 -5.7 9.66 -4 10 C-3.8453125 8.9171875 -3.8453125 8.9171875 -3.6875 7.8125 C-2.94013068 4.75508007 -1.71954811 2.61670365 0 0 Z " fill="#C9722D" transform="translate(489,412)"/><path d="M0 0 C1.35158203 0.15275391 1.35158203 0.15275391 2.73046875 0.30859375 C3.41753906 0.39238281 4.10460937 0.47617187 4.8125 0.5625 C3.8225 0.8925 2.8325 1.2225 1.8125 1.5625 C2.1425 2.5525 2.4725 3.5425 2.8125 4.5625 C1.760625 4.85125 0.70875 5.14 -0.375 5.4375 C-4.88611068 6.73868951 -4.88611068 6.73868951 -9.1875 8.5625 C-9.5175 9.5525 -9.8475 10.5425 -10.1875 11.5625 C-10.8475 10.9025 -11.5075 10.2425 -12.1875 9.5625 C-15.67582306 11.77177127 -16.91808503 13.64847051 -18.1875 17.5625 C-18.5175 17.5625 -18.8475 17.5625 -19.1875 17.5625 C-18.75166015 12.11450186 -17.67271211 8.80127149 -14.1875 4.5625 C-9.28684008 0.86200169 -6.09657012 -0.71258612 0 0 Z " fill="#DB8B35" transform="translate(516.1875,320.4375)"/><path d="M0 0 C1.12588014 0.95729916 2.2506715 1.91587895 3.375 2.875 C4.00148438 3.40867187 4.62796875 3.94234375 5.2734375 4.4921875 C6.55836651 5.61432007 7.79371975 6.79371975 9 8 C14.55935489 8.87585193 19.52840973 8.87020259 24.1875 5.5 C25.115625 4.675 26.04375 3.85 27 3 C25.47759883 7.26272329 22.96724754 8.98031034 19 11 C15.96481042 11.32647417 13.0394094 11.21883748 10 11 C9.34 11 8.68 11 8 11 C8.33 11.99 8.66 12.98 9 14 C8.01 14.495 8.01 14.495 7 15 C7 17.31 7 19.62 7 22 C4.70423322 19.70423322 3.9361625 18.09653751 3 15 C3.375 12.3125 3.375 12.3125 4 10 C4 9.34 4 8.68 4 8 C3.01 7.34 2.02 6.68 1 6 C0.34 6.66 -0.32 7.32 -1 8 C-1.04241723 5.66705225 -1.04092937 3.33297433 -1 1 C-0.67 0.67 -0.34 0.34 0 0 Z " fill="#925822" transform="translate(508,374)"/><path d="M0 0 C0.33 0 0.66 0 1 0 C1 2.64 1 5.28 1 8 C-1 9 -1 9 -3.875 8.0625 C-10.98794864 5.90795539 -18.35819639 6.30635961 -25.375 8.5625 C-31.96592547 10.62759231 -38.23331377 9.81990505 -45 9 C-45 8.67 -45 8.34 -45 8 C-43.88882812 7.87882812 -42.77765625 7.75765625 -41.6328125 7.6328125 C-32.01343532 6.59656535 -32.01343532 6.59656535 -22.5 4.875 C-14.25272621 3.13065275 -7.82277819 3.893081 0 7 C0 4.69 0 2.38 0 0 Z " fill="#BC6126" transform="translate(553,433)"/><path d="M0 0 C2.47455747 2.36696801 3.91162332 3.78327918 4.16796875 7.3125 C4.17441406 8.199375 4.18085937 9.08625 4.1875 10 C4.20167969 10.886875 4.21585938 11.77375 4.23046875 12.6875 C4 15 4 15 2 17 C1.67 16.34 1.34 15.68 1 15 C0.34 15 -0.32 15 -1 15 C-1.22211116 13.06403108 -1.42722992 11.12610672 -1.625 9.1875 C-1.74101563 8.10855469 -1.85703125 7.02960938 -1.9765625 5.91796875 C-2 3 -2 3 0 0 Z " fill="#F28235" transform="translate(590,406)"/><path d="M0 0 C3.37218639 3.11278743 5.97287886 6.57870908 8.6328125 10.29296875 C9.90694728 12.12787013 9.90694728 12.12787013 12 13 C17.01580842 13.53677934 17.01580842 13.53677934 21.25 11.1875 C21.8275 10.465625 22.405 9.74375 23 9 C24 8 25 7 26 6 C24.5140084 10.59306496 22.14985318 13.43569245 19 17 C18.01 16.67 17.02 16.34 16 16 C15.34 16.99 14.68 17.98 14 19 C8.73300204 13.88791374 3.38597741 8.58384496 0 2 C0 1.34 0 0.68 0 0 Z " fill="#CC582B" transform="translate(508,535)"/><path d="M0 0 C0.33 0.66 0.66 1.32 1 2 C1.66 2.33 2.32 2.66 3 3 C2.05125 3.391875 1.1025 3.78375 0.125 4.1875 C-2.9956257 5.50509752 -5.94937025 7.03163869 -8.9375 8.625 C-13.45277247 10.89981764 -16.93736318 11.91271316 -22 12 C-24.2265625 11.00390625 -24.2265625 11.00390625 -26 10 C-24.14375 9.6596875 -24.14375 9.6596875 -22.25 9.3125 C-14.33210437 7.55853578 -6.86170709 4.29482762 0 0 Z " fill="#D67228" transform="translate(516,465)"/><path d="M0 0 C0.33 0 0.66 0 1 0 C1.99 9.24 2.98 18.48 4 28 C3.34 28.33 2.68 28.66 2 29 C1.67 29.99 1.34 30.98 1 32 C-0.2138361 21.33558287 -0.09531193 10.71729679 0 0 Z " fill="#A1411F" transform="translate(504,564)"/><path d="M0 0 C0.33 0 0.66 0 1 0 C1 2.64 1 5.28 1 8 C1.99 7.67 2.98 7.34 4 7 C4.33 8.65 4.66 10.3 5 12 C4.360625 12.2475 3.72125 12.495 3.0625 12.75 C0.81258459 13.81562433 0.81258459 13.81562433 0.25 16.125 C0.1675 16.74375 0.085 17.3625 0 18 C-0.66 17.34 -1.32 16.68 -2 16 C-3.98 16.99 -3.98 16.99 -6 18 C-5.65066406 17.53851563 -5.30132813 17.07703125 -4.94140625 16.6015625 C-1.13078673 11.13931469 -0.14905394 6.61257468 0 0 Z " fill="#CF702E" transform="translate(588,413)"/><path d="M0 0 C1.125 1.625 1.125 1.625 2 4 C1.125 7.25 1.125 7.25 0 10 C-1.2380014 6.42355152 -0.74926071 3.66305234 0 0 Z M2 0 C2.99 0 3.98 0 5 0 C5.33 7.59 5.66 15.18 6 23 C5.34 23 4.68 23 4 23 C3.97494385 22.44538086 3.9498877 21.89076172 3.92407227 21.31933594 C3.80772073 18.79601157 3.68517246 16.27302464 3.5625 13.75 C3.52318359 12.87730469 3.48386719 12.00460937 3.44335938 11.10546875 C3.40146484 10.26113281 3.35957031 9.41679688 3.31640625 8.546875 C3.27974854 7.77182617 3.24309082 6.99677734 3.20532227 6.19824219 C3.00396985 4.0425024 2.58270703 2.08198525 2 0 Z " fill="#BE4929" transform="translate(578,587)"/><path d="M0 0 C0.66 0.33 1.32 0.66 2 1 C1.38511719 1.4846875 0.77023437 1.969375 0.13671875 2.46875 C-5.28617071 6.96620218 -8.33105194 10.10168134 -10 17 C-10.2535421 20.3347049 -10.2535421 20.3347049 -10 23 C-10.66 23.33 -11.32 23.66 -12 24 C-12.58648443 17.6399022 -12.32362648 13.12348916 -8.578125 7.828125 C-6.01073222 4.85401654 -3.12128751 2.37469712 0 0 Z " fill="#E68E3A" transform="translate(464,396)"/><path d="M0 0 C7.03638367 -0.25129942 13.11263209 -0.04521893 19 4.125 C19.99 5.053125 19.99 5.053125 21 6 C16.51471135 5.1595613 12.10942057 4.05582308 7.6875 2.9375 C6.94693359 2.75123047 6.20636719 2.56496094 5.44335938 2.37304688 C3.62863559 1.91643895 1.81428029 1.45836694 0 1 C0 0.67 0 0.34 0 0 Z " fill="#A36329" transform="translate(499,401)"/><path d="M0 0 C2 1 2 1 3.125 4.0625 C3.41375 5.031875 3.7025 6.00125 4 7 C3.01 7.495 3.01 7.495 2 8 C2 10.31 2 12.62 2 15 C-0.29576678 12.70423322 -1.0638375 11.09653751 -2 8 C-1.65849104 5.13132471 -0.91477075 2.74431224 0 0 Z " fill="#5E3C1F" transform="translate(513,381)"/><path d="M0 0 C0.33 0 0.66 0 1 0 C0.56021231 6.68780594 -0.22157136 12.55474849 -4.5625 17.9375 C-6 19 -6 19 -8 19 C-8 17 -8 17 -6 15 C-3.1838621 10.21476567 -1.34255623 5.3702249 0 0 Z " fill="#632816" transform="translate(564,602)"/><path d="M0 0 C0 0.33 0 0.66 0 1 C-7.89211879 3.31320723 -14.86776924 2.85602429 -23 2 C-23 1.67 -23 1.34 -23 1 C-20.29272088 0.63521072 -17.58476283 0.28290562 -14.875 -0.0625 C-14.11445312 -0.16626953 -13.35390625 -0.27003906 -12.5703125 -0.37695312 C-8.13800459 -0.93099161 -4.41342179 -1.00817782 0 0 Z " fill="#A25925" transform="translate(531,440)"/><path d="M0 0 C0.66 0.33 1.32 0.66 2 1 C0.1875 3.5 0.1875 3.5 -2 6 C-2.99 6 -3.98 6 -5 6 C-4.67 6.99 -4.34 7.98 -4 9 C-5.65 8.67 -7.3 8.34 -9 8 C-9 7.34 -9 6.68 -9 6 C-7.03125 4.4921875 -7.03125 4.4921875 -4.5 2.875 C-3.6646875 2.33617187 -2.829375 1.79734375 -1.96875 1.2421875 C-1.3190625 0.83226562 -0.669375 0.42234375 0 0 Z " fill="#1E100A" transform="translate(529,459)"/><path d="M0 0 C1.45703125 1.05078125 1.45703125 1.05078125 3 3 C3.51171875 6.35546875 3.51171875 6.35546875 3.6875 10.1875 C3.75324219 11.45980469 3.81898438 12.73210938 3.88671875 14.04296875 C3.92410156 15.01878906 3.96148438 15.99460937 4 17 C1.52000933 14.52000933 1.45277898 13.04581838 0.875 9.625 C0.70742188 8.66851563 0.53984375 7.71203125 0.3671875 6.7265625 C0 4 0 4 0 0 Z " fill="#87311E" transform="translate(560,646)"/><path d="M0 0 C1.40907283 2.81814566 0.50872691 4.17277204 -0.4375 7.125 C-0.72496094 8.03507812 -1.01242187 8.94515625 -1.30859375 9.8828125 C-1.65083984 10.93082031 -1.65083984 10.93082031 -2 12 C-5.51716303 12 -6.37121748 11.17554415 -9 9 C-6.525 9.495 -6.525 9.495 -4 10 C-3.8453125 8.9171875 -3.8453125 8.9171875 -3.6875 7.8125 C-2.94013068 4.75508007 -1.71954811 2.61670365 0 0 Z " fill="#BD7531" transform="translate(489,412)"/><path d="M0 0 C3.3 0.33 6.6 0.66 10 1 C9.01 1.33 8.02 1.66 7 2 C7 2.66 7 3.32 7 4 C5.02 4 3.04 4 1 4 C0.67 2.68 0.34 1.36 0 0 Z " fill="#EC9738" transform="translate(511,320)"/><path d="M0 0 C0.33 0 0.66 0 1 0 C0.88512252 1.58409994 0.75765492 3.16728963 0.625 4.75 C0.52058594 6.07257812 0.52058594 6.07257812 0.4140625 7.421875 C0.00149945 9.99066382 -0.71160957 11.75841015 -2 14 C-2.05389087 12.04196493 -2.09274217 10.08351091 -2.125 8.125 C-2.14820313 7.03445313 -2.17140625 5.94390625 -2.1953125 4.8203125 C-2 2 -2 2 0 0 Z " fill="#120806" transform="translate(528,550)"/><path d="M0 0 C3 1 3 1 4.6875 3.0625 C6.43156702 6.96588809 6.21611119 9.74981335 6 14 C5.67 14 5.34 14 5 14 C4.80664062 13.32453125 4.61328125 12.6490625 4.4140625 11.953125 C4.15367187 11.06109375 3.89328125 10.1690625 3.625 9.25 C3.36976563 8.36828125 3.11453125 7.4865625 2.8515625 6.578125 C2.0790066 4.23919428 1.16374324 2.16557438 0 0 Z " fill="#E98136" transform="translate(486,424)"/><path d="M0 0 C0.66 0.33 1.32 0.66 2 1 C-0.12741392 5.70270446 -2.62060825 9.16393369 -6 13 C-6.33 12.34 -6.66 11.68 -7 11 C-5.56640625 8.3984375 -5.56640625 8.3984375 -3.5625 5.375 C-2.90378906 4.37210937 -2.24507813 3.36921875 -1.56640625 2.3359375 C-1.04949219 1.56507813 -0.53257812 0.79421875 0 0 Z " fill="#E79D38" transform="translate(324,340)"/><path d="M0 0 C1.98 0 3.96 0 6 0 C3.3401439 3.44216672 0.09711714 3.99504674 -4 5 C-4.66 4.34 -5.32 3.68 -6 3 C-4.02 2.34 -2.04 1.68 0 1 C0 0.67 0 0.34 0 0 Z " fill="#25190D" transform="translate(518,323)"/><path d="M0 0 C0.66 0.33 1.32 0.66 2 1 C1.34 4.3 0.68 7.6 0 11 C-0.33 11 -0.66 11 -1 11 C-1.02688151 9.35425434 -1.04634123 7.70838587 -1.0625 6.0625 C-1.07410156 5.14597656 -1.08570313 4.22945312 -1.09765625 3.28515625 C-1 1 -1 1 0 0 Z " fill="#F06736" transform="translate(524,550)"/><path d="M0 0 C0.99 0.33 1.98 0.66 3 1 C0.12835434 3.70272533 -1.30991841 4.94791837 -5.3125 5.25 C-6.199375 5.1675 -7.08625 5.085 -8 5 C-8 4.67 -8 4.34 -8 4 C-6.576875 3.566875 -6.576875 3.566875 -5.125 3.125 C-1.94788422 2.23174891 -1.94788422 2.23174891 0 0 Z " fill="#1F0F0A" transform="translate(498,613)"/><path d="M0 0 C0.99 0.33 1.98 0.66 3 1 C0.03716687 3.38672669 -2.94270509 5.7353371 -6 8 C-4.55746343 4.63408134 -2.66735273 2.48952921 0 0 Z " fill="#C4561F" transform="translate(551,504)"/><path d="M0 0 C0.33 0.66 0.66 1.32 1 2 C1.66 2.33 2.32 2.66 3 3 C0.36 3.99 -2.28 4.98 -5 6 C-4 2 -4 2 -1.9375 0.75 C-1.298125 0.5025 -0.65875 0.255 0 0 Z " fill="#C86A25" transform="translate(516,465)"/><path d="M0 0 C0.98995103 2.67286779 1.04574968 3.85219333 0.1875 6.625 C-1 9 -1 9 -3 11 C-2.44894091 7.0507432 -1.61064629 3.65079826 0 0 Z " fill="#453C38" transform="translate(595,452)"/></svg>